<svg width="286" height="287" viewBox="0 0 286 287" fill="none" xmlns="http://www.w3.org/2000/svg">
<path fill-rule="evenodd" clip-rule="evenodd" d="M145 287C222.872 287 286 223.872 286 146C286 68.1278 222.872 5 145 5C67.1278 5 4 68.1278 4 146C4 223.872 67.1278 287 145 287ZM119 19H129.6H161.4H172L161.4 76H129.6L119 19Z" fill="black"/>
<path fill-rule="evenodd" clip-rule="evenodd" d="M141 282C218.872 282 282 218.872 282 141C282 63.1278 218.872 0 141 0C63.1278 0 0 63.1278 0 141C0 218.872 63.1278 282 141 282ZM115 14H125.6H157.4H168L157.4 71H125.6L115 14Z" fill="#F32929"/>
<ellipse cx="142.5" cy="142" rx="62.5" ry="60" fill="black"/>
<path d="M203 141C203 173.547 175.504 200 141.5 200C107.496 200 80 173.547 80 141C80 108.453 107.496 82 141.5 82C175.504 82 203 108.453 203 141Z" fill="#F32929" stroke="#B61E1E" stroke-width="2"/>
<path d="M168 142C168 156.359 156.359 168 142 168C127.641 168 116 156.359 116 142C116 127.641 127.641 116 142 116C156.359 116 168 127.641 168 142Z" fill="black"/>
<path fill-rule="evenodd" clip-rule="evenodd" d="M167.96 143.459C167.986 142.976 168 142.489 168 142C168 141.511 167.986 141.024 167.96 140.541L170.955 140.376C170.985 140.914 171 141.455 171 142C171 142.545 170.985 143.086 170.955 143.624L167.96 143.459ZM167.636 137.643L170.595 137.144C170.413 136.065 170.171 135.006 169.873 133.97L166.99 134.799C167.257 135.727 167.473 136.676 167.636 137.643ZM166.027 132.048L168.798 130.898C168.381 129.891 167.908 128.913 167.384 127.968L164.76 129.421C165.23 130.269 165.653 131.145 166.027 132.048ZM163.206 126.954L165.652 125.215C165.023 124.33 164.345 123.482 163.623 122.675L161.387 124.675C162.035 125.399 162.642 126.16 163.206 126.954ZM159.325 122.613L161.325 120.377C160.518 119.655 159.67 118.977 158.785 118.348L157.046 120.794C157.84 121.358 158.601 121.965 159.325 122.613ZM154.579 119.24L156.032 116.616C155.087 116.092 154.109 115.619 153.102 115.202L151.952 117.973C152.855 118.347 153.731 118.77 154.579 119.24ZM149.201 117.01L150.03 114.127C148.994 113.829 147.935 113.587 146.856 113.405L146.357 116.364C147.324 116.527 148.273 116.743 149.201 117.01ZM143.459 116.04L143.624 113.045C143.086 113.015 142.545 113 142 113C141.455 113 140.914 113.015 140.376 113.045L140.541 116.04C141.024 116.014 141.511 116 142 116C142.489 116 142.976 116.014 143.459 116.04ZM137.643 116.364L137.144 113.405C136.065 113.587 135.006 113.829 133.97 114.127L134.799 117.01C135.727 116.743 136.676 116.527 137.643 116.364ZM132.048 117.973L130.898 115.202C129.891 115.619 128.913 116.092 127.968 116.616L129.421 119.24C130.269 118.77 131.145 118.347 132.048 117.973ZM126.954 120.794L125.215 118.348C124.33 118.977 123.482 119.655 122.675 120.377L124.675 122.613C125.399 121.965 126.16 121.358 126.954 120.794ZM122.613 124.675L120.377 122.675C119.655 123.482 118.977 124.33 118.348 125.215L120.794 126.954C121.358 126.16 121.965 125.399 122.613 124.675ZM119.24 129.421L116.616 127.968C116.092 128.913 115.619 129.891 115.202 130.898L117.973 132.048C118.347 131.145 118.77 130.269 119.24 129.421ZM117.01 134.799L114.127 133.97C113.829 135.006 113.587 136.065 113.405 137.144L116.364 137.643C116.527 136.676 116.743 135.727 117.01 134.799ZM116.04 140.541C116.014 141.024 116 141.511 116 142C116 142.489 116.014 142.976 116.04 143.459L113.045 143.624C113.015 143.086 113 142.545 113 142C113 141.455 113.015 140.914 113.045 140.376L116.04 140.541ZM116.364 146.357L113.405 146.856C113.587 147.935 113.829 148.994 114.127 150.03L117.01 149.201C116.743 148.273 116.527 147.324 116.364 146.357ZM117.973 151.952L115.202 153.102C115.619 154.109 116.092 155.087 116.616 156.032L119.24 154.579C118.77 153.731 118.347 152.855 117.973 151.952ZM120.794 157.046L118.348 158.785C118.977 159.67 119.655 160.518 120.377 161.325L122.613 159.325C121.965 158.601 121.358 157.84 120.794 157.046ZM124.675 161.387L122.675 163.623C123.482 164.345 124.33 165.023 125.215 165.652L126.954 163.206C126.16 162.642 125.399 162.035 124.675 161.387ZM129.421 164.76L127.968 167.384C128.913 167.908 129.891 168.381 130.898 168.798L132.048 166.027C131.145 165.653 130.269 165.23 129.421 164.76ZM134.799 166.99L133.97 169.873C135.006 170.171 136.065 170.413 137.144 170.595L137.643 167.636C136.676 167.473 135.727 167.257 134.799 166.99ZM140.541 167.96L140.376 170.955C140.914 170.985 141.455 171 142 171C142.545 171 143.086 170.985 143.624 170.955L143.459 167.96C142.976 167.986 142.489 168 142 168C141.511 168 141.024 167.986 140.541 167.96ZM146.357 167.636L146.856 170.595C147.935 170.413 148.994 170.171 150.03 169.873L149.201 166.99C148.273 167.257 147.324 167.473 146.357 167.636ZM151.952 166.027L153.102 168.798C154.109 168.381 155.087 167.908 156.032 167.384L154.579 164.76C153.731 165.23 152.855 165.653 151.952 166.027ZM157.046 163.206L158.785 165.652C159.67 165.023 160.518 164.345 161.325 163.623L159.325 161.387C158.601 162.035 157.84 162.642 157.046 163.206ZM161.387 159.325L163.623 161.325C164.345 160.518 165.023 159.67 165.652 158.785L163.206 157.046C162.642 157.84 162.035 158.601 161.387 159.325ZM164.76 154.579L167.384 156.032C167.908 155.087 168.381 154.109 168.798 153.102L166.027 151.952C165.653 152.855 165.23 153.731 164.76 154.579ZM166.99 149.201L169.873 150.03C170.171 148.994 170.413 147.935 170.595 146.856L167.636 146.357C167.473 147.324 167.257 148.273 166.99 149.201Z" fill="black"/>
<path d="M167 141C167 155.359 155.359 167 141 167C126.641 167 115 155.359 115 141C115 126.641 126.641 115 141 115C155.359 115 167 126.641 167 141Z" fill="#C11515"/>
<path fill-rule="evenodd" clip-rule="evenodd" d="M166.96 142.459C166.986 141.976 167 141.489 167 141C167 140.511 166.986 140.024 166.96 139.541L169.955 139.376C169.985 139.914 170 140.455 170 141C170 141.545 169.985 142.086 169.955 142.624L166.96 142.459ZM166.636 136.643L169.595 136.144C169.413 135.065 169.171 134.006 168.873 132.97L165.99 133.799C166.257 134.727 166.473 135.676 166.636 136.643ZM165.027 131.048L167.798 129.898C167.381 128.891 166.908 127.913 166.384 126.968L163.76 128.421C164.23 129.269 164.653 130.145 165.027 131.048ZM162.206 125.954L164.652 124.215C164.023 123.33 163.345 122.482 162.623 121.675L160.387 123.675C161.035 124.399 161.642 125.16 162.206 125.954ZM158.325 121.613L160.325 119.377C159.518 118.655 158.67 117.977 157.785 117.348L156.046 119.794C156.84 120.358 157.601 120.965 158.325 121.613ZM153.579 118.24L155.032 115.616C154.087 115.092 153.109 114.619 152.102 114.202L150.952 116.973C151.855 117.347 152.731 117.77 153.579 118.24ZM148.201 116.01L149.03 113.127C147.994 112.829 146.935 112.587 145.856 112.405L145.357 115.364C146.324 115.527 147.273 115.743 148.201 116.01ZM142.459 115.04L142.624 112.045C142.086 112.015 141.545 112 141 112C140.455 112 139.914 112.015 139.376 112.045L139.541 115.04C140.024 115.014 140.511 115 141 115C141.489 115 141.976 115.014 142.459 115.04ZM136.643 115.364L136.144 112.405C135.065 112.587 134.006 112.829 132.97 113.127L133.799 116.01C134.727 115.743 135.676 115.527 136.643 115.364ZM131.048 116.973L129.898 114.202C128.891 114.619 127.913 115.092 126.968 115.616L128.421 118.24C129.269 117.77 130.145 117.347 131.048 116.973ZM125.954 119.794L124.215 117.348C123.33 117.977 122.482 118.655 121.675 119.377L123.675 121.613C124.399 120.965 125.16 120.358 125.954 119.794ZM121.613 123.675L119.377 121.675C118.655 122.482 117.977 123.33 117.348 124.215L119.794 125.954C120.358 125.16 120.965 124.399 121.613 123.675ZM118.24 128.421L115.616 126.968C115.092 127.913 114.619 128.891 114.202 129.898L116.973 131.048C117.347 130.145 117.77 129.269 118.24 128.421ZM116.01 133.799L113.127 132.97C112.829 134.006 112.587 135.065 112.405 136.144L115.364 136.643C115.527 135.676 115.743 134.727 116.01 133.799ZM115.04 139.541C115.014 140.024 115 140.511 115 141C115 141.489 115.014 141.976 115.04 142.459L112.045 142.624C112.015 142.086 112 141.545 112 141C112 140.455 112.015 139.914 112.045 139.376L115.04 139.541ZM115.364 145.357L112.405 145.856C112.587 146.935 112.829 147.994 113.127 149.03L116.01 148.201C115.743 147.273 115.527 146.324 115.364 145.357ZM116.973 150.952L114.202 152.102C114.619 153.109 115.092 154.087 115.616 155.032L118.24 153.579C117.77 152.731 117.347 151.855 116.973 150.952ZM119.794 156.046L117.348 157.785C117.977 158.67 118.655 159.518 119.377 160.325L121.613 158.325C120.965 157.601 120.358 156.84 119.794 156.046ZM123.675 160.387L121.675 162.623C122.482 163.345 123.33 164.023 124.215 164.652L125.954 162.206C125.16 161.642 124.399 161.035 123.675 160.387ZM128.421 163.76L126.968 166.384C127.913 166.908 128.891 167.381 129.898 167.798L131.048 165.027C130.145 164.653 129.269 164.23 128.421 163.76ZM133.799 165.99L132.97 168.873C134.006 169.171 135.065 169.413 136.144 169.595L136.643 166.636C135.676 166.473 134.727 166.257 133.799 165.99ZM139.541 166.96L139.376 169.955C139.914 169.985 140.455 170 141 170C141.545 170 142.086 169.985 142.624 169.955L142.459 166.96C141.976 166.986 141.489 167 141 167C140.511 167 140.024 166.986 139.541 166.96ZM145.357 166.636L145.856 169.595C146.935 169.413 147.994 169.171 149.03 168.873L148.201 165.99C147.273 166.257 146.324 166.473 145.357 166.636ZM150.952 165.027L152.102 167.798C153.109 167.381 154.087 166.908 155.032 166.384L153.579 163.76C152.731 164.23 151.855 164.653 150.952 165.027ZM156.046 162.206L157.785 164.652C158.67 164.023 159.518 163.345 160.325 162.623L158.325 160.387C157.601 161.035 156.84 161.642 156.046 162.206ZM160.387 158.325L162.623 160.325C163.345 159.518 164.023 158.67 164.652 157.785L162.206 156.046C161.642 156.84 161.035 157.601 160.387 158.325ZM163.76 153.579L166.384 155.032C166.908 154.087 167.381 153.109 167.798 152.102L165.027 150.952C164.653 151.855 164.23 152.731 163.76 153.579ZM165.99 148.201L168.873 149.03C169.171 147.994 169.413 146.935 169.595 145.856L166.636 145.357C166.473 146.324 166.257 147.273 165.99 148.201Z" fill="#C11515"/>
<path d="M130.475 146H128.21V137.18H125.3V135.29H133.385V137.18H130.475V146ZM141.624 137.81V146H139.914L139.614 144.95H139.494C139.324 145.23 139.104 145.46 138.834 145.64C138.574 145.81 138.284 145.935 137.964 146.015C137.644 146.105 137.314 146.15 136.974 146.15C136.394 146.15 135.884 146.045 135.444 145.835C135.004 145.625 134.664 145.3 134.424 144.86C134.184 144.42 134.064 143.85 134.064 143.15V137.81H136.299V142.595C136.299 143.175 136.404 143.615 136.614 143.915C136.824 144.215 137.159 144.365 137.619 144.365C138.079 144.365 138.434 144.26 138.684 144.05C138.944 143.84 139.124 143.535 139.224 143.135C139.334 142.735 139.389 142.245 139.389 141.665V137.81H141.624ZM148.543 137.66C148.653 137.66 148.783 137.665 148.933 137.675C149.083 137.685 149.203 137.7 149.293 137.72L149.128 139.82C149.058 139.8 148.953 139.785 148.813 139.775C148.683 139.755 148.568 139.745 148.468 139.745C148.178 139.745 147.898 139.785 147.628 139.865C147.358 139.935 147.113 140.05 146.893 140.21C146.683 140.37 146.513 140.585 146.383 140.855C146.263 141.115 146.203 141.44 146.203 141.83V146H143.968V137.81H145.663L145.993 139.19H146.098C146.258 138.91 146.458 138.655 146.698 138.425C146.938 138.195 147.213 138.01 147.523 137.87C147.843 137.73 148.183 137.66 148.543 137.66ZM155.429 137.66C156.309 137.66 157.014 137.9 157.544 138.38C158.074 138.85 158.339 139.61 158.339 140.66V146H156.104V141.215C156.104 140.625 155.999 140.185 155.789 139.895C155.579 139.595 155.244 139.445 154.784 139.445C154.104 139.445 153.639 139.68 153.389 140.15C153.139 140.61 153.014 141.275 153.014 142.145V146H150.779V137.81H152.489L152.789 138.86H152.909C153.089 138.58 153.309 138.355 153.569 138.185C153.829 138.005 154.119 137.875 154.439 137.795C154.759 137.705 155.089 137.66 155.429 137.66Z" fill="black"/>
<path d="M129.475 145H127.21V136.18H124.3V134.29H132.385V136.18H129.475V145ZM140.624 136.81V145H138.914L138.614 143.95H138.494C138.324 144.23 138.104 144.46 137.834 144.64C137.574 144.81 137.284 144.935 136.964 145.015C136.644 145.105 136.314 145.15 135.974 145.15C135.394 145.15 134.884 145.045 134.444 144.835C134.004 144.625 133.664 144.3 133.424 143.86C133.184 143.42 133.064 142.85 133.064 142.15V136.81H135.299V141.595C135.299 142.175 135.404 142.615 135.614 142.915C135.824 143.215 136.159 143.365 136.619 143.365C137.079 143.365 137.434 143.26 137.684 143.05C137.944 142.84 138.124 142.535 138.224 142.135C138.334 141.735 138.389 141.245 138.389 140.665V136.81H140.624ZM147.543 136.66C147.653 136.66 147.783 136.665 147.933 136.675C148.083 136.685 148.203 136.7 148.293 136.72L148.128 138.82C148.058 138.8 147.953 138.785 147.813 138.775C147.683 138.755 147.568 138.745 147.468 138.745C147.178 138.745 146.898 138.785 146.628 138.865C146.358 138.935 146.113 139.05 145.893 139.21C145.683 139.37 145.513 139.585 145.383 139.855C145.263 140.115 145.203 140.44 145.203 140.83V145H142.968V136.81H144.663L144.993 138.19H145.098C145.258 137.91 145.458 137.655 145.698 137.425C145.938 137.195 146.213 137.01 146.523 136.87C146.843 136.73 147.183 136.66 147.543 136.66ZM154.429 136.66C155.309 136.66 156.014 136.9 156.544 137.38C157.074 137.85 157.339 138.61 157.339 139.66V145H155.104V140.215C155.104 139.625 154.999 139.185 154.789 138.895C154.579 138.595 154.244 138.445 153.784 138.445C153.104 138.445 152.639 138.68 152.389 139.15C152.139 139.61 152.014 140.275 152.014 141.145V145H149.779V136.81H151.489L151.789 137.86H151.909C152.089 137.58 152.309 137.355 152.569 137.185C152.829 137.005 153.119 136.875 153.439 136.795C153.759 136.705 154.089 136.66 154.429 136.66Z" fill="#F32929"/>
</svg>
